<?xml version="1.0" standalone="no"?>
<!DOCTYPE svg PUBLIC "-//W3C//DTD SVG 20010904//EN"
 "http://www.w3.org/TR/2001/REC-SVG-20010904/DTD/svg10.dtd">
<svg version="1.0" xmlns="http://www.w3.org/2000/svg"
 width="512.000000pt" height="512.000000pt" viewBox="0 0 512.000000 512.000000"
 preserveAspectRatio="xMidYMid meet">
<metadata>
Created by potrace 1.14, written by Peter Selinger 2001-2017
</metadata>
<g transform="translate(0.000000,512.000000) scale(0.100000,-0.100000)"
fill="#000000" stroke="none">
<path d="M2577 4904 c-1 -1 -38 -4 -82 -8 -142 -11 -266 -32 -375 -63 -30 -8
-62 -17 -70 -18 -98 -21 -334 -118 -465 -191 -127 -71 -134 -74 -205 -123
-337 -228 -603 -536 -785 -906 -130 -266 -206 -530 -234 -820 -10 -95 -8 -401
2 -455 3 -14 8 -47 11 -75 10 -80 16 -116 32 -185 9 -36 18 -76 20 -90 16 -81
105 -316 169 -445 207 -418 515 -751 915 -987 199 -117 447 -217 655 -263 142
-32 192 -40 329 -51 361 -32 744 25 1076 158 89 36 291 136 346 172 88 58 197
132 207 141 7 6 37 30 67 54 86 69 289 278 360 371 93 121 178 255 232 363 37
75 3 148 -77 163 -27 5 -45 -1 -96 -31 -174 -102 -378 -180 -579 -222 -111
-23 -149 -26 -340 -27 -167 -1 -237 3 -314 17 -118 22 -262 62 -351 97 -150
60 -339 163 -426 234 -14 12 -41 32 -59 46 -118 88 -276 263 -381 423 -124
188 -242 482 -265 662 -3 22 -7 47 -10 54 -17 51 -24 326 -11 459 38 405 235
814 532 1106 92 90 138 128 254 207 104 71 122 99 105 160 -14 50 -55 74 -125
74 -33 0 -61 0 -62 -1z"/>
</g>
</svg>
